<?xml version="1.0" encoding="utf-8"?>
<!-- Generator: Adobe Illustrator 27.7.0, SVG Export Plug-In . SVG Version: 6.00 Build 0)  -->
<svg version="1.1" id="Layer_1" xmlns="http://www.w3.org/2000/svg" xmlns:xlink="http://www.w3.org/1999/xlink" x="0px" y="0px"
	 viewBox="0 0 520 520" style="enable-background:new 0 0 520 520;" stroke="currentColor" fill="none" stroke-linecap="round" stroke-linejoin="round" xml:space="preserve">
<style type="text/css">
	.st0{stroke-width:20;}
</style>
<path class="st0" d="M49.4,11.9H13.7v496.2h35.7"/>
<path class="st0" d="M166.3,169.2v25.1h0.7c6.7-9.6,14.8-17,24.2-22.2c9.4-5.3,20.3-7.9,32.5-7.9c11.7,0,22.4,2.3,32.1,6.8
	c9.7,4.5,17,12.6,22.1,24c5.5-8.1,13-15.3,22.4-21.5s20.6-9.3,33.5-9.3c9.8,0,18.9,1.2,27.3,3.6c8.4,2.4,15.5,6.2,21.5,11.5
	s10.6,12.1,14,20.6c3.3,8.5,5,18.7,5,30.7v124.1h-50.9V249.6c0-6.2-0.2-12.1-0.7-17.6s-1.8-10.3-3.9-14.3c-2.2-4.1-5.3-7.3-9.5-9.7
	s-9.9-3.6-17-3.6c-7.2,0-13,1.4-17.4,4.1c-4.4,2.8-7.9,6.3-10.4,10.8c-2.5,4.4-4.2,9.4-5,15.1c-0.8,5.6-1.3,11.3-1.3,17v103.3h-50.9
	v-104c0-5.5-0.1-10.9-0.4-16.3c-0.2-5.4-1.3-10.3-3.1-14.9c-1.8-4.5-4.8-8.2-9-10.9s-10.3-4.1-18.5-4.1c-2.4,0-5.6,0.5-9.5,1.6
	s-7.8,3.1-11.5,6.1s-6.9,7.3-9.5,12.9c-2.6,5.6-3.9,13-3.9,22.1v107.6h-50.9V169.2H166.3z"/>
<path class="st0" d="M470.6,508.1h35.7V11.9h-35.7"/>
</svg>
