<?xml version="1.0" encoding="utf-8"?>
<!-- Generator: Adobe Illustrator 27.7.0, SVG Export Plug-In . SVG Version: 6.00 Build 0)  -->
<svg version="1.1" id="Layer_1" xmlns="http://www.w3.org/2000/svg" xmlns:xlink="http://www.w3.org/1999/xlink" x="0px" y="0px"
	 viewBox="0 0 520 520" style="enable-background:new 0 0 520 520;" stroke="currentColor" xml:space="preserve">
<style type="text/css">
	.st0{fill:none;stroke-width:30;stroke-linecap:round;stroke-linejoin:round;}
	.st1{fill:none;stroke-width:20;stroke-linecap:round;stroke-linejoin:round;}
</style>
<path class="st0" d="M101.8,56H74.3v381.9h27.5"/>
<path class="st1" d="M191.8,177.1v19.3h0.5c10.5-14.9,25.1-23.3,43.6-23.2c17.9,0.2,34.2,5.9,41.7,23.7c14-21.4,39.6-28.4,64-20.9
	c13.1,3.8,22.2,11.8,27.3,24.7c7.4,14.6,2.6,101.9,3.8,119.1h-39.2c-0.2-9.8,0.5-86.8-0.5-94.4c-0.8-13.2-9.5-21.8-23.4-21.2
	c-14.5-0.5-23.5,9.7-25.2,23.1c-1.9,7-0.7,83.6-1,92.6h-39.2c-0.1-8.8,0.3-86-0.3-92.6c-0.3-13.8-8.1-23.9-23.5-23
	c-9.6,0.2-19.4,5.9-23.5,15.9c-5.9,9.7-1.9,87.6-3,99.8h-39.2V177.1H191.8z"/>
<path class="st0" d="M425.9,437.9h27.5V56h-27.5"/>
</svg>
