<?xml version="1.0" encoding="utf-8"?>
<!-- Generator: Adobe Illustrator 27.8.1, SVG Export Plug-In . SVG Version: 6.00 Build 0)  -->
<svg version="1.1" id="Capa_1" xmlns="http://www.w3.org/2000/svg" xmlns:xlink="http://www.w3.org/1999/xlink" x="0px" y="0px"
	 viewBox="0 0 520 520" style="enable-background:new 0 0 520 520;" stroke="currentColor" xml:space="preserve">
<style type="text/css">
	.st0{fill:none;stroke-width:28;stroke-linecap:round;stroke-linejoin:round;}
</style>
<g id="lines__x003C_Group_x003E_">
	<g id="circle">
		<path class="st0" d="M170.6,401.8c0,28.4-23,51.5-51.5,51.5c-28.4,0-51.5-23-51.5-51.5c0-28.5,23.1-51.5,51.5-51.5
			C147.5,350.3,170.6,373.3,170.6,401.8z"/>
	</g>
	<g>
		<g>
			<path class="st0" d="M64.3,258.9c0,7.1,5.6,13,12.7,13.3c50.9,2.6,85.1,21.1,116.6,52.8c31,31.1,50.7,75.7,54.1,116.2
				c0.6,6.9,6.4,12.3,13.3,12.3h47.8c3.7,0,7.2-1.5,9.7-4.2c2.5-2.7,3.8-6.2,3.7-9.9C315.4,306.1,212,204.7,78.4,198
				c-3.7-0.2-7.2,1.1-9.9,3.7c-2.7,2.5-4.2,6-4.2,9.7V258.9z"/>
		</g>
	</g>
	<g>
		<g>
			<path class="st0" d="M64.3,127.1c0,7.2,5.7,13.1,12.8,13.3C241,147,372.7,277,379.3,440.7c0.3,7.2,6.2,12.8,13.3,12.8h47.6
				c3.6,0,7.1-1.5,9.6-4.1c2.5-2.6,3.9-6.1,3.7-9.7C446.7,233.4,284.6,73,78.2,66.1c-3.6-0.1-7.1,1.2-9.7,3.8
				c-2.6,2.5-4.1,6-4.1,9.6V127.1z"/>
		</g>
	</g>
</g>
</svg>
