<?xml version="1.0" standalone="no"?>
<!DOCTYPE svg PUBLIC "-//W3C//DTD SVG 20010904//EN"
 "http://www.w3.org/TR/2001/REC-SVG-20010904/DTD/svg10.dtd">
<svg version="1.0" xmlns="http://www.w3.org/2000/svg"
 width="411.000000pt" height="411.000000pt" viewBox="0 0 411.000000 411.000000"
 preserveAspectRatio="xMidYMid meet">
<metadata>
Created by potrace 1.14, written by Peter Selinger 2001-2017
</metadata>
<g transform="translate(0.000000,411.000000) scale(0.100000,-0.100000)"
fill="#000000" stroke="none">
<path d="M2065 4053 c-88 -5 -308 -34 -370 -49 -65 -16 -315 -107 -408 -148
-64 -29 -194 -113 -217 -141 -8 -9 -40 -34 -71 -56 -166 -112 -291 -279 -390
-519 -57 -141 -75 -195 -84 -261 l-6 -46 -40 13 c-72 25 -174 -4 -208 -60 -49
-81 -75 -245 -65 -404 l7 -109 -62 -23 c-34 -12 -68 -32 -76 -44 -34 -48 -6
-151 62 -226 91 -101 126 -102 259 -5 18 13 15 2 -17 -59 -38 -72 -119 -301
-154 -437 -13 -47 -16 -85 -11 -144 10 -140 36 -210 136 -365 16 -25 39 -61
50 -80 11 -19 36 -55 55 -80 19 -25 46 -70 60 -100 33 -69 82 -122 107 -114
10 3 18 1 18 -4 0 -17 140 -160 201 -208 76 -59 164 -104 200 -104 16 0 29 2
29 5 0 3 -20 30 -45 61 -25 30 -45 61 -45 68 0 21 31 43 105 74 l69 30 58 -63
c39 -43 73 -69 103 -81 25 -9 48 -14 51 -11 3 3 -10 27 -29 54 -19 26 -46 69
-61 94 l-26 46 37 7 c75 12 266 6 323 -10 86 -25 250 -53 307 -54 47 0 54 -3
67 -28 17 -33 10 -49 -24 -53 -22 -4 -57 -50 -96 -127 -10 -19 21 -81 65 -129
36 -41 61 -54 61 -33 0 5 15 17 33 26 54 27 76 54 83 100 3 24 10 44 14 44 4
0 13 -23 20 -50 9 -39 22 -58 54 -86 69 -60 66 -61 124 26 l53 79 -32 58 c-41
74 -58 93 -81 93 -21 0 -23 27 -4 53 10 13 33 19 87 23 41 3 83 9 94 14 11 4
47 13 80 20 33 7 88 21 123 30 62 18 64 18 97 -1 55 -33 208 -60 293 -53 39 3
72 3 72 -1 0 -28 -58 -99 -115 -140 -36 -25 -65 -50 -65 -56 0 -17 56 -9 98
14 45 24 130 119 138 154 7 26 20 28 75 12 l38 -12 -16 -31 c-9 -17 -40 -56
-69 -87 -30 -31 -54 -61 -54 -67 0 -32 123 -20 205 21 54 27 78 47 123 101 21
25 61 57 88 71 27 13 68 44 91 67 50 52 127 194 159 291 18 55 23 65 24 41 0
-17 -7 -51 -15 -74 -18 -52 -18 -50 0 -50 24 0 85 60 109 109 31 62 53 151 72
296 14 103 14 134 3 223 -7 56 -16 102 -21 102 -4 0 -8 12 -8 28 0 33 -28 139
-63 247 -15 44 -41 129 -57 188 -17 60 -51 152 -76 205 -51 107 -97 222 -108
265 -8 33 -89 198 -135 275 -17 29 -31 56 -31 61 0 12 -59 99 -130 191 -36 47
-69 91 -74 98 -4 6 4 45 18 86 38 109 37 243 -2 353 -44 123 -156 248 -326
363 -161 108 -425 184 -686 195 -74 4 -144 7 -155 9 -11 1 -42 1 -70 -1z m400
-47 c207 -38 430 -133 559 -237 87 -70 197 -183 221 -226 19 -32 19 -32 -11
-79 -45 -72 -108 -120 -187 -140 l-68 -18 -92 46 c-159 80 -340 138 -542 174
-115 20 -476 19 -586 -2 -89 -17 -244 -71 -313 -109 -22 -12 -52 -26 -66 -30
-45 -13 -159 -95 -203 -146 -24 -27 -60 -58 -80 -68 l-36 -18 34 41 c18 22 57
59 86 81 87 68 94 74 82 75 -18 0 -152 -110 -204 -168 -44 -48 -82 -73 -259
-164 -81 -42 -230 -65 -230 -35 0 12 31 78 49 107 5 8 21 40 35 70 70 152 124
228 255 363 100 103 220 204 330 276 98 64 95 63 371 166 19 7 53 15 75 18 22
3 48 9 58 13 91 35 551 41 722 10z m171 -1076 c6 0 32 -20 58 -45 27 -25 51
-45 53 -45 10 0 103 -104 103 -115 0 -7 -7 -15 -14 -18 -19 -8 -261 227 -251
243 5 8 12 7 24 -4 10 -9 22 -16 27 -16z m-2079 -251 c68 -38 109 -73 129
-111 16 -31 9 -36 -15 -12 -39 38 -139 105 -171 114 -88 25 -186 5 -226 -47
-29 -38 -44 -42 -44 -10 0 26 5 33 43 66 57 51 192 50 284 0z m483 -74 c0 -79
-11 -96 -29 -44 -14 40 -14 75 -1 100 20 37 30 19 30 -56z m1917 9 c36 -44 40
-76 12 -82 -20 -4 -93 92 -86 112 10 24 38 13 74 -30z m360 -157 c-18 -38 -60
-79 -103 -100 -28 -14 -32 -14 -62 5 -39 25 -40 34 -4 41 41 8 104 74 132 139
l25 57 14 -55 c11 -47 11 -58 -2 -87z m-1692 -25 c-4 -93 -2 -192 5 -266 6
-65 9 -120 7 -123 -3 -2 -15 0 -26 6 -11 7 -55 13 -96 14 -41 1 -75 5 -75 9 0
22 96 292 119 333 16 28 34 73 41 100 17 71 19 75 26 75 4 0 3 -67 -1 -148z
m-631 120 c4 -10 22 -33 40 -51 34 -33 34 -34 18 -60 -28 -43 -55 -69 -85 -80
-35 -14 -127 -14 -147 -1 -13 8 -12 10 3 10 10 0 45 26 77 58 45 46 59 67 65
100 7 44 20 54 29 24z m-48 -37 c-7 -29 -59 -91 -90 -107 -20 -11 -20 -10 -6
8 8 10 27 34 43 53 16 19 34 48 40 65 12 34 22 19 13 -19z m-400 -15 c58 -20
84 -41 84 -67 0 -8 -15 -4 -47 13 -43 22 -61 25 -168 27 -108 2 -124 0 -157
-20 l-38 -22 0 24 c0 23 21 38 80 58 41 14 189 6 246 -13z m2569 -130 c3 -5 1
-10 -4 -10 -6 0 -11 5 -11 10 0 6 2 10 4 10 3 0 8 -4 11 -10z m-2288 -31 c15
-6 39 -20 52 -32 33 -31 81 -131 84 -174 2 -32 -1 -37 -28 -46 -16 -5 -37 -16
-46 -23 -8 -8 -23 -14 -31 -14 -17 0 -48 66 -48 103 0 12 -4 28 -9 36 -7 11
-11 4 -16 -25 -20 -119 -27 -144 -42 -144 -10 0 -13 6 -9 16 11 28 -6 114 -28
147 -12 18 -37 39 -56 48 l-34 16 22 18 c15 14 18 22 11 31 -6 7 -8 22 -4 34
6 18 15 20 80 20 41 0 86 -5 102 -11z m2758 -6 c19 -44 -7 -147 -40 -159 -23
-9 -64 26 -75 65 -24 85 -8 109 71 110 26 1 39 -4 44 -16z m-178 -109 c44 -80
19 -176 -52 -201 -33 -11 -41 -11 -56 3 -19 17 -43 99 -34 115 11 17 22 9 31
-23 17 -59 31 -43 36 41 7 117 33 140 75 65z m-3047 -2 c0 -16 -261 -145 -272
-134 -25 25 -1 45 117 93 118 47 155 57 155 41z m160 -19 c0 -10 -6 -25 -13
-33 -24 -31 -185 -141 -257 -176 -72 -35 -73 -35 -93 -16 -19 19 -19 20 20 51
45 36 312 190 331 191 6 0 12 -8 12 -17z m596 -54 c39 -24 50 -36 47 -50 -5
-17 -16 -19 -89 -19 -71 0 -84 3 -84 16 0 26 40 84 58 84 9 0 39 -14 68 -31z
m1229 -83 c24 -83 116 -268 160 -322 34 -41 36 -47 22 -56 -20 -11 -72 -108
-58 -108 6 0 13 5 16 10 8 13 89 50 110 50 11 0 -1 -20 -37 -60 -65 -71 -88
-134 -88 -239 0 -150 97 -238 284 -257 52 -5 71 -3 112 15 66 30 90 55 114
118 25 67 27 191 4 260 -15 46 -59 121 -79 135 -5 4 -7 10 -3 13 11 11 82 -31
127 -75 23 -23 51 -60 62 -83 20 -46 25 -127 8 -158 -5 -11 -9 -28 -6 -37 3
-13 16 -4 55 38 29 30 52 60 52 67 0 7 -8 28 -17 47 -15 33 -15 37 0 54 9 10
17 25 17 32 0 8 -36 48 -79 90 -80 75 -86 87 -83 154 2 28 4 26 38 -30 46 -77
99 -132 150 -155 39 -18 42 -22 54 -79 10 -46 11 -99 5 -208 -5 -81 -9 -176
-10 -212 -1 -36 -5 -86 -9 -112 -7 -40 -12 -48 -39 -57 -16 -6 -57 -11 -89
-11 -59 0 -61 -1 -104 -49 -51 -57 -127 -115 -164 -126 -14 -4 -61 -31 -105
-60 -44 -29 -98 -58 -120 -65 -22 -7 -44 -16 -50 -20 -5 -4 -64 -15 -130 -24
-66 -10 -139 -22 -163 -28 -48 -12 -82 -50 -82 -91 0 -18 -13 -36 -45 -62 -24
-20 -48 -35 -52 -33 -5 1 -32 19 -61 38 -41 28 -52 40 -52 62 0 39 -20 78 -44
83 -12 3 -70 12 -130 21 -60 8 -132 24 -160 35 -28 11 -71 24 -94 30 -24 5
-89 35 -145 67 -77 43 -127 82 -208 160 -127 122 -128 124 -136 352 l-6 145
22 -27 c28 -35 61 -40 37 -6 -20 28 -21 103 -1 157 22 62 59 105 127 146 62
36 84 40 55 7 -34 -38 -79 -153 -84 -216 -9 -108 28 -221 88 -265 98 -73 307
-41 401 61 32 35 43 103 35 218 -6 89 -29 143 -88 202 -22 22 -37 43 -34 46 3
3 29 -4 58 -17 68 -29 85 -35 72 -24 -6 4 -22 26 -37 49 -19 30 -43 49 -92 73
-35 17 -74 31 -86 31 -12 0 -33 9 -47 19 -28 23 -46 19 -61 -13 -7 -17 -22
-25 -54 -30 -23 -4 -57 -12 -75 -18 -27 -10 -35 -9 -52 6 -29 27 -55 17 -59
-22 -2 -17 -8 -32 -14 -32 -14 0 -1 126 22 204 9 34 29 86 43 116 14 30 32 69
39 85 11 28 13 21 18 -80 4 -60 11 -121 17 -135 14 -32 48 -60 73 -60 19 0 20
7 20 109 0 61 4 112 8 115 8 5 198 -30 213 -40 4 -2 11 -19 14 -37 4 -17 22
-60 40 -94 l32 -62 -39 20 c-52 27 -147 44 -161 30 -8 -8 1 -11 30 -11 43 0
126 -30 154 -56 9 -8 20 -14 25 -12 5 2 34 -16 64 -38 69 -52 150 -81 150 -54
0 5 -13 24 -28 42 -30 35 -69 115 -60 123 3 3 20 -16 37 -43 40 -63 53 -74
128 -111 50 -25 75 -31 125 -31 l64 0 -34 70 c-18 39 -32 76 -29 83 2 6 11 -4
20 -24 23 -55 84 -117 125 -129 62 -17 137 -13 163 10 15 12 20 22 14 27 -6 5
-24 26 -41 48 -36 48 -120 293 -128 375 -6 61 2 49 29 -44z m678 42 c24 -28
32 -65 17 -83 -14 -17 -46 -20 -55 -5 -5 8 -11 8 -20 0 -10 -9 -16 -6 -25 10
-14 25 -6 40 23 41 19 0 19 2 -5 11 -32 11 -34 20 -12 43 19 19 52 12 77 -17z
m-2213 -7 c0 -9 11 -32 25 -51 27 -37 32 -83 13 -124 -12 -29 -69 -66 -98 -66
-10 0 -22 -4 -25 -10 -3 -5 -22 -1 -45 11 -37 20 -45 39 -16 39 6 0 29 17 49
38 36 37 77 128 77 172 0 12 5 18 10 15 6 -3 10 -14 10 -24z m2705 -96 c-11
-57 -49 -118 -85 -137 -26 -14 -36 -15 -39 -6 -2 7 -12 22 -23 34 -19 21 -19
21 13 34 34 15 109 102 109 128 1 14 3 14 16 -3 10 -13 13 -31 9 -50z m-3095
-174 c-15 -120 -22 -533 -11 -661 5 -69 19 -165 31 -214 12 -48 19 -90 16 -93
-2 -3 -14 12 -26 34 -11 21 -34 58 -50 83 -53 80 -82 150 -91 218 -22 172 -1
389 46 482 14 27 25 54 25 59 0 6 11 34 24 63 13 29 27 63 31 76 11 38 13 21
5 -47z m317 -32 c4 -19 -13 -43 -25 -36 -13 9 -2 59 12 54 6 -2 12 -10 13 -18z
m828 -150 c49 -12 78 -39 73 -65 -9 -51 -258 -41 -258 10 0 24 60 53 133 65 5
0 28 -4 52 -10z m1293 -29 c27 -16 33 -26 30 -48 -2 -20 -8 -27 -23 -25 -239
23 -257 29 -209 71 35 31 153 32 202 2z m-1731 -42 c31 -11 45 -28 23 -28 -13
0 -70 29 -70 35 0 8 11 6 47 -7z m-217 -309 c6 -51 19 -128 30 -169 10 -41 21
-95 24 -118 l4 -44 -24 23 c-66 62 -99 208 -74 331 21 107 26 105 40 -23z
m2410 -184 c0 -117 -3 -155 -12 -155 -10 0 -12 34 -7 152 4 84 7 154 8 156 8
17 11 -23 11 -153z m-2160 -514 c0 -5 3 -18 6 -28 6 -16 5 -16 -9 2 -19 23
-21 35 -7 35 6 0 10 -4 10 -9z m864 -213 c79 -79 78 -99 -7 -151 -26 -17 -29
-17 -52 0 -13 10 -34 36 -46 58 l-22 41 27 52 c14 28 31 52 36 52 6 0 34 -24
64 -52z m279 -11 l30 -57 -38 -54 -38 -55 -38 19 c-50 26 -72 57 -58 83 21 39
94 127 103 124 5 -2 23 -29 39 -60z m-358 -147 c24 -27 54 -25 99 5 20 13 36
21 36 17 0 -4 -24 -23 -54 -44 l-54 -36 -29 31 c-36 39 -74 103 -65 112 3 3
16 -10 27 -29 12 -20 30 -45 40 -56z m401 65 c-3 -8 -24 -40 -47 -70 l-41 -55
-30 18 c-16 9 -37 25 -46 36 -15 16 -13 16 18 -3 19 -11 43 -21 52 -21 9 0 34
25 55 55 39 56 50 66 39 40z"/>
<path d="M2000 3594 c-47 -7 -130 -21 -185 -29 -55 -9 -136 -26 -181 -39 -81
-24 -190 -73 -181 -82 3 -3 27 6 54 19 111 57 548 140 644 124 35 -6 163 -28
277 -47 108 -17 283 -85 465 -178 4 -2 7 3 7 12 0 18 -56 56 -155 103 -38 19
-77 37 -86 42 -30 17 -176 53 -289 72 -132 21 -249 23 -370 3z"/>
<path d="M1287 1041 c-29 -43 -32 -51 -19 -51 12 0 54 68 50 81 -2 6 -16 -7
-31 -30z"/>
<path d="M1916 1052 c-16 -27 52 -94 109 -107 l30 -7 -35 26 c-19 15 -49 43
-66 63 -20 24 -33 32 -38 25z"/>
<path d="M2255 1010 c-15 -16 -46 -39 -69 -50 l-41 -21 40 7 c22 3 47 11 55
17 32 23 70 61 70 69 0 17 -28 7 -55 -22z"/>
<path d="M2681 992 c-7 -29 -11 -56 -7 -59 10 -10 27 49 24 81 -3 27 -5 25
-17 -22z"/>
<path d="M2870 1019 c0 -8 12 -25 25 -38 17 -16 25 -19 25 -9 0 8 -11 25 -25
38 -17 16 -25 19 -25 9z"/>
<path d="M1392 999 c-15 -37 -19 -83 -7 -89 5 -3 13 15 17 40 10 58 5 84 -10
49z"/>
<path d="M2785 980 c-8 -47 2 -91 16 -69 12 18 11 96 0 103 -5 4 -12 -12 -16
-34z"/>
<path d="M1500 980 c0 -16 5 -30 10 -30 6 0 10 14 10 30 0 17 -4 30 -10 30 -5
0 -10 -13 -10 -30z"/>
</g>
</svg>
