<?xml version="1.0" standalone="no"?>
<!DOCTYPE svg PUBLIC "-//W3C//DTD SVG 20010904//EN"
 "http://www.w3.org/TR/2001/REC-SVG-20010904/DTD/svg10.dtd">
<svg version="1.0" xmlns="http://www.w3.org/2000/svg"
 width="256.000000pt" height="256.000000pt" viewBox="0 0 256.000000 256.000000"
 preserveAspectRatio="xMidYMid meet">
<metadata>
Created by potrace 1.14, written by Peter Selinger 2001-2017
</metadata>
<g transform="translate(0.000000,256.000000) scale(0.100000,-0.100000)"
fill="#000000" stroke="none">
<path d="M1165 2546 c-71 -14 -142 -41 -245 -90 -131 -64 -170 -91 -251 -177
-83 -88 -140 -185 -177 -304 l-19 -60 -48 -7 c-35 -5 -57 -15 -79 -37 -29 -30
-30 -33 -34 -150 l-4 -120 -28 -10 c-71 -24 -80 -65 -31 -131 58 -79 87 -86
145 -38 22 18 37 28 34 22 -2 -5 -26 -53 -52 -107 -57 -117 -71 -207 -50 -321
13 -65 54 -147 90 -177 9 -7 34 -46 56 -86 26 -48 46 -73 58 -73 10 0 36 -24
59 -54 60 -78 159 -142 183 -118 8 8 4 23 -16 56 l-26 45 22 15 c38 27 70 20
96 -19 19 -30 88 -73 99 -62 6 6 -8 37 -17 37 -9 0 -50 62 -50 74 0 12 211 4
300 -12 77 -13 99 -23 100 -44 0 -5 -7 -8 -15 -8 -8 0 -28 -18 -43 -39 -17
-26 -38 -42 -57 -47 -16 -3 -49 -15 -72 -25 -23 -11 -47 -19 -52 -19 -17 0
-13 -60 4 -66 8 -4 15 -10 15 -14 0 -4 -27 -40 -60 -81 -86 -105 -93 -170 -22
-207 94 -49 270 -73 307 -42 13 11 23 10 58 -8 67 -33 125 -37 167 -11 28 17
48 22 100 20 55 -2 71 2 105 24 43 28 67 66 58 93 -17 53 -40 91 -76 124 -34
32 -39 43 -39 77 1 31 -5 44 -21 56 l-21 15 24 25 c14 15 39 35 57 46 18 12
33 28 33 38 0 9 5 22 12 29 9 9 7 17 -11 33 -12 12 -21 23 -19 24 7 7 158 13
158 7 0 -3 -21 -28 -47 -54 -26 -26 -44 -51 -40 -55 14 -13 73 28 97 66 20 31
29 36 52 33 15 -2 28 -6 28 -9 0 -12 -31 -60 -49 -77 -30 -27 -26 -36 17 -36
46 0 129 38 162 74 14 15 56 59 93 99 38 40 81 86 97 102 46 48 59 95 66 233
5 113 4 135 -16 202 -12 41 -28 97 -35 124 -8 26 -20 62 -28 80 -38 81 -50
110 -96 229 -53 134 -127 271 -174 318 l-28 28 21 45 c11 25 20 55 20 68 0 54
-30 161 -54 192 -115 152 -273 224 -539 245 -152 13 -174 13 -252 -3z m378
-27 c61 -11 179 -54 259 -96 53 -28 148 -125 148 -151 0 -47 -74 -120 -114
-113 -12 1 -59 27 -106 56 -124 78 -185 96 -360 102 -102 4 -152 2 -168 -6
-12 -6 -57 -22 -100 -34 -91 -27 -187 -78 -257 -138 l-50 -43 40 42 c61 65 27
49 -40 -18 -33 -33 -63 -60 -66 -60 -4 0 -36 -19 -70 -41 -41 -27 -77 -44
-106 -47 -23 -2 -43 -2 -43 2 0 26 82 170 144 251 98 128 172 181 371 262 109
44 168 53 320 47 77 -3 166 -10 198 -15z m-178 -229 c-3 -5 -43 -10 -88 -10
-57 0 -77 3 -67 10 20 13 163 13 155 0z m300 -366 c47 -41 75 -87 62 -101 -6
-5 -137 128 -137 139 0 18 24 5 75 -38z m-1181 -111 c31 -15 57 -32 60 -39 2
-6 -19 0 -47 13 -51 25 -102 27 -151 8 -14 -6 -17 -4 -14 11 3 18 33 31 75 33
13 1 47 -11 77 -26z m276 -40 l-1 -38 -15 28 c-15 27 -12 47 7 47 5 0 9 -17 9
-37z m1036 -3 c15 -22 24 -44 20 -48 -9 -8 -65 57 -66 76 0 24 20 12 46 -28z
m-1042 -102 c-7 -22 -42 -38 -82 -38 l-27 0 32 21 c23 15 36 33 44 62 l11 41
14 -33 c8 -19 12 -43 8 -53z m1218 3 c-14 -19 -30 -27 -60 -29 -25 -2 -42 1
-42 7 0 6 9 11 20 11 24 0 89 56 91 79 1 9 4 3 6 -13 3 -19 -2 -38 -15 -55z
m-1270 39 c-4 -28 -37 -59 -49 -47 -8 9 33 68 53 77 0 0 -1 -14 -4 -30z m-201
-9 c27 -18 29 -21 9 -14 -14 4 -62 8 -107 8 -46 0 -83 3 -83 7 0 35 128 34
181 -1z m569 -116 l0 -105 -39 0 -39 0 15 58 c15 56 52 152 59 152 2 0 4 -47
4 -105z m-406 21 c14 -9 31 -34 38 -57 11 -37 10 -43 -7 -55 -29 -21 -42 -17
-55 19 -11 29 -13 30 -20 12 -5 -11 -9 -32 -9 -47 -2 -49 -21 -42 -21 7 0 39
-5 51 -30 73 -17 15 -30 36 -30 50 0 23 3 24 55 19 30 -2 66 -12 79 -21z
m1461 5 c8 -25 -11 -71 -29 -71 -8 0 -19 14 -25 31 -14 41 -15 38 12 49 32 13
35 12 42 -9z m-1800 -81 c-44 -21 -84 -35 -88 -31 -12 12 12 27 78 50 93 32
98 24 10 -19z m153 19 c-14 -23 -154 -119 -173 -119 -7 0 -18 6 -24 14 -9 11
-4 17 23 30 19 9 36 20 38 24 3 7 127 70 141 71 4 1 2 -8 -5 -20z m1562 6 c7
-9 13 -32 14 -52 1 -36 0 -38 -39 -44 -22 -4 -41 -6 -41 -5 -1 0 -5 12 -8 26
-6 19 -5 22 3 10 10 -13 12 -13 21 0 5 8 10 23 10 32 0 23 11 48 20 48 4 0 13
-7 20 -15z m-1245 -21 c36 -24 32 -44 -9 -44 -41 0 -51 12 -36 40 13 24 14 24
45 4z m1043 -48 c5 -38 -9 -49 -36 -30 -36 25 -27 68 13 62 14 -2 21 -12 23
-32z m-1174 -80 c-8 -21 -73 -47 -99 -40 -25 6 -24 7 14 34 25 19 42 40 46 60
l7 31 18 -36 c10 -20 17 -42 14 -49z m1406 -18 c-27 -22 -73 -23 -89 -4 -10
12 -3 18 35 38 26 12 52 34 58 48 10 23 11 22 14 -20 3 -36 -1 -48 -18 -62z
m-574 16 c21 -42 49 -87 60 -100 21 -22 21 -23 4 -39 -18 -16 -20 -15 -44 23
-35 56 -80 192 -63 192 2 0 21 -34 43 -76z m-441 35 c21 -7 37 -23 56 -58 22
-43 23 -48 7 -43 -10 2 -21 8 -24 13 -3 5 -17 9 -32 8 -16 0 -21 -3 -12 -6 8
-3 30 -12 48 -19 18 -7 35 -13 38 -13 3 0 20 -11 39 -25 18 -14 38 -26 44 -26
6 0 11 -5 11 -11 0 -5 5 -7 10 -4 8 5 7 11 -1 21 -21 26 -1 27 30 2 31 -27
108 -45 123 -30 6 6 1 23 -11 43 -12 19 -21 43 -21 54 1 16 4 14 18 -11 39
-71 60 -88 117 -94 36 -4 62 -2 77 7 45 25 51 12 11 -25 -36 -32 -42 -44 -48
-94 -10 -82 10 -136 61 -162 67 -36 173 -23 202 25 7 11 15 48 19 83 4 51 2
71 -16 111 -12 27 -27 53 -34 57 -9 6 -8 8 2 8 8 0 36 -22 62 -49 39 -38 49
-55 49 -81 0 -19 -7 -42 -17 -52 -26 -29 6 -23 38 8 24 23 26 30 17 50 -8 18
-8 27 2 40 12 14 8 21 -31 56 -24 22 -50 43 -58 48 -9 5 -12 16 -7 34 8 34 22
33 40 -2 8 -15 35 -46 60 -69 l46 -42 0 -118 c0 -192 -6 -207 -80 -214 -25 -3
-40 -12 -51 -30 -19 -29 -94 -86 -154 -118 -26 -13 -78 -25 -145 -32 -90 -11
-107 -16 -128 -38 -13 -14 -21 -33 -19 -42 3 -10 -6 -26 -20 -39 l-24 -21 -29
21 c-17 12 -30 31 -32 47 -3 25 -9 29 -83 45 -212 46 -244 60 -325 142 -30 31
-60 56 -67 56 -15 0 -15 2 -17 127 -1 78 1 90 13 80 12 -10 14 -9 9 3 -16 44
-18 59 -8 65 5 3 10 14 10 24 0 33 76 102 110 100 11 0 11 -2 2 -6 -24 -9 -63
-84 -68 -131 -8 -63 24 -138 63 -153 38 -15 147 -5 178 15 33 22 45 54 45 119
0 53 -19 97 -63 145 -23 25 -14 28 23 7 35 -20 43 -18 30 6 -15 28 -69 59
-102 59 -16 0 -28 5 -28 10 0 6 -6 10 -14 10 -23 0 -28 17 -21 74 8 58 6 58
80 35z m-127 -93 c10 -10 26 -22 37 -27 16 -6 13 -8 -15 -9 -19 0 -42 -4 -50
-10 -9 -5 -19 -5 -27 2 -9 8 -15 4 -23 -16 -5 -14 -12 -26 -16 -26 -3 0 -3 8
1 18 4 9 13 40 20 67 8 28 19 64 26 80 l12 30 9 -45 c6 -25 17 -53 26 -64z
m-498 14 c-20 -105 -22 -293 -6 -395 9 -55 19 -109 22 -120 l6 -20 -15 20
c-45 62 -90 162 -94 214 -6 66 20 210 48 261 10 19 23 48 29 64 15 41 20 29
10 -24z m612 -116 c41 -21 24 -36 -38 -32 -54 3 -68 27 -24 39 14 4 26 7 28 8
2 1 17 -6 34 -15z m684 -9 c16 -13 17 -16 4 -25 -29 -19 -100 -5 -100 20 0 21
70 25 96 5z m-1009 -355 c-1 -9 -12 1 -27 25 -20 31 -25 53 -25 100 1 112 16
110 36 -5 10 -58 18 -112 16 -120z m1283 33 c0 -12 -4 -25 -10 -28 -6 -4 -10
11 -10 37 0 31 3 39 10 28 5 -8 10 -25 10 -37z m-326 -252 c16 -18 16 -19 -11
-26 -15 -5 -32 -7 -37 -6 -24 6 -56 -11 -56 -29 0 -21 -47 -70 -67 -70 -7 0
-26 14 -43 30 -17 17 -35 30 -40 30 -16 0 -11 26 9 44 15 13 121 36 217 45 6
1 19 -7 28 -18z m19 -51 c-4 -15 0 -20 15 -20 19 0 20 -3 11 -30 -6 -16 -16
-30 -21 -30 -24 0 -95 -71 -113 -112 -10 -23 -20 -45 -22 -47 -1 -2 -23 2 -48
9 -31 9 -42 16 -36 24 4 6 12 28 15 50 8 43 33 72 91 106 22 13 53 34 68 47
35 28 47 29 40 3z m-73 -9 c0 -10 -30 -24 -37 -17 -3 3 -2 9 2 15 8 13 35 15
35 2z m-322 -48 c20 -17 20 -21 7 -50 -18 -41 -45 -43 -67 -5 -16 27 -16 29 5
50 26 27 29 27 55 5z m111 -31 c-11 -8 -27 -11 -36 -8 -14 6 -13 10 7 31 21
23 24 23 36 8 10 -15 9 -20 -7 -31z m75 -34 c-1 -52 -14 -78 -42 -89 -22 -8
-29 -6 -54 21 -35 39 -35 44 0 68 33 23 50 30 77 31 17 1 21 -5 19 -31z m-175
-88 c13 0 44 -77 37 -89 -4 -6 -18 -11 -31 -11 -18 0 -25 7 -30 33 -4 17 -12
37 -17 44 -6 7 -3 19 9 33 15 17 19 18 21 5 2 -8 7 -15 11 -15z m-54 -90 c-7
-22 -22 -25 -45 -10 -12 7 -8 10 14 10 24 0 26 2 16 15 -6 8 -8 19 -4 26 10
17 27 -17 19 -41z m334 31 c7 -5 10 -14 6 -20 -5 -9 -10 -9 -20 -1 -7 6 -26
10 -41 8 -15 -2 -29 3 -31 10 -5 14 64 17 86 3z m43 -10 c-4 -10 -21 -35 -39
-55 -30 -34 -36 -36 -92 -36 -55 0 -59 1 -54 21 3 11 17 26 31 32 22 10 27 8
48 -18 19 -24 25 -27 38 -16 23 19 20 31 -9 31 -14 0 -25 5 -25 10 0 13 33 13
46 0 6 -6 18 1 34 20 29 35 32 37 22 11z m25 -43 c-8 -24 13 -48 41 -48 22 0
32 -7 45 -35 9 -19 14 -43 10 -52 -15 -39 -63 -54 -104 -33 -18 10 -18 12 -3
35 10 15 13 32 9 42 -11 29 -14 103 -3 103 5 0 8 -6 5 -12z m-446 -8 c34 0 37
-15 10 -44 -34 -38 -35 -63 -3 -80 35 -18 69 -11 77 15 4 11 11 17 16 14 17
-11 9 -43 -17 -74 -21 -26 -33 -31 -68 -31 -24 0 -57 -5 -74 -11 -53 -18 -193
37 -207 83 -3 9 1 31 10 50 8 18 12 23 9 11 -8 -34 11 -28 61 18 49 45 86 60
129 54 16 -3 41 -5 57 -5z m97 -39 c9 -26 8 -28 -14 -28 -14 0 -24 5 -24 13 0
8 5 14 11 14 6 0 8 9 4 21 -11 33 11 14 23 -20z m312 -8 c0 -20 -3 -24 -11
-16 -7 7 -9 19 -6 27 10 24 17 19 17 -11z m-119 -73 c32 0 59 9 59 20 0 5 -8
6 -19 3 -10 -3 -22 0 -25 6 -5 7 5 11 28 11 34 0 36 -2 36 -34 0 -61 -73 -126
-142 -126 -43 0 -78 10 -78 22 0 11 48 58 75 74 19 11 19 12 3 31 -27 29 -22
37 8 14 15 -12 39 -21 55 -21z"/>
<path d="M880 929 c-15 -28 -4 -38 15 -13 17 22 19 34 5 34 -5 0 -14 -9 -20
-21z"/>
<path d="M941 903 c-15 -53 0 -65 15 -12 16 53 16 49 4 49 -5 0 -14 -16 -19
-37z"/>
<path d="M1230 924 c0 -15 14 -30 37 -43 27 -14 33 -14 33 -1 0 6 -5 10 -12
10 -6 0 -22 10 -35 22 -13 12 -23 17 -23 12z"/>
<path d="M1419 914 c-7 -9 -24 -20 -37 -25 -31 -12 -21 -24 12 -15 14 3 30 16
37 27 14 26 6 35 -12 13z"/>
<path d="M1643 923 c-7 -2 -13 -21 -13 -41 0 -42 15 -33 25 16 4 17 5 32 3 31
-2 0 -9 -3 -15 -6z"/>
<path d="M1696 904 c-9 -24 -7 -64 3 -64 11 0 21 25 21 56 0 27 -15 32 -24 8z"/>
<path d="M1740 913 c1 -14 40 -56 47 -50 7 8 -24 57 -37 57 -6 0 -10 -3 -10
-7z"/>
<path d="M1000 895 c0 -8 5 -15 10 -15 6 0 10 7 10 15 0 8 -4 15 -10 15 -5 0
-10 -7 -10 -15z"/>
</g>
</svg>
